HIERARCHY
ROOT Hips
{
  OFFSET 7.333 -26.027 -164.856
  CHANNELS 6 Xposition Yposition Zposition Zrotation Xrotation Yrotation
  JOINT LeftUpLeg
  {
    OFFSET 10.092 0.000 0.000
    CHANNELS 3 Zrotation Xrotation Yrotation
    JOINT LeftLeg
    {
      OFFSET 0.000 -38.160 -0.000
    CHANNELS 3 Zrotation Xrotation Yrotation
      JOINT LeftFoot
      {
        OFFSET -0.000 -24.040 0.000
    CHANNELS 3 Zrotation Xrotation Yrotation
        End Site
        {
          OFFSET -0.000 0.000 12.945
        }
      }
    }
  }
  JOINT RightUpLeg
  {
    OFFSET -10.092 -0.000 0.000
    CHANNELS 3 Zrotation Xrotation Yrotation
    JOINT RightLeg
    {
      OFFSET 0.000 -33.046 0.000
    CHANNELS 3 Zrotation Xrotation Yrotation
      JOINT RightFoot
      {
        OFFSET 0.000 -22.031 -0.000
    CHANNELS 3 Zrotation Xrotation Yrotation
        End Site
        {
          OFFSET 0.000 -0.000 11.863
        }
      }
    }
  }
  JOINT Spine
  {
    OFFSET -0.000 16.511 0.000
    CHANNELS 3 Zrotation Xrotation Yrotation
    JOINT LeftShoulder
    {
      OFFSET 0 16.511 0
    CHANNELS 3 Zrotation Xrotation Yrotation
      JOINT LeftArm
      {
        OFFSET 16.337 0.000 0.000
    CHANNELS 3 Zrotation Xrotation Yrotation
        JOINT LeftForeArm
        {
          OFFSET 0.000 -24.030 0.000
    CHANNELS 3 Zrotation Xrotation Yrotation
          JOINT LeftHand
          {
            OFFSET 0.000 -17.629 -0.000
    CHANNELS 3 Zrotation Xrotation Yrotation
            End Site
            {
              OFFSET 0.000 -11.753 -0.000
            }
          }
        }
      }
    }
    JOINT RightShoulder
    {
      OFFSET 0 16.511 0
    CHANNELS 3 Zrotation Xrotation Yrotation
      JOINT RightArm
      {
        OFFSET -16.337 0.000 0.000
    CHANNELS 3 Zrotation Xrotation Yrotation
        JOINT RightForeArm
        {
          OFFSET -0.000 -19.534 0.000
    CHANNELS 3 Zrotation Xrotation Yrotation
          JOINT RightHand
          {
            OFFSET 0.000 -19.514 -0.000
    CHANNELS 3 Zrotation Xrotation Yrotation
            End Site
            {
              OFFSET 0.000 -13.010 -0.000
            }
          }
        }
      }
    }
    JOINT Neck
    {
      OFFSET -0.000 16.511 0.000
    CHANNELS 3 Zrotation Xrotation Yrotation
      JOINT Head
      {
        OFFSET -0.000 12.493 -0.000
    CHANNELS 3 Zrotation Xrotation Yrotation
        End Site
        {
          OFFSET -0.000 8.328 -0.000
        }
      }
    }
  }
}
MOTION
Frames: 22
Frame Time: 0.0333333
0 0 0 -4.975979e+00 2.286980e+00 3.095030e+00 4.647870e+00 5.882890e+00 -4.774210e-01 2.574040e-01 -1.157310e+01 9.814450e-01 0 0 0 5.367560e+00 1.084870e+01 -1.013120e+00 3.271710e+00 -2.046530e+01 3.006560e+00 0 0 0 0 0 -2.700000e-05 0 0 0 1.065910e+01 -3.180790e+00 1.229460e+01 -3.255700e+00 -1.148600e+00 5.008320e+00 0 0 1.000000e-06 0 0 0 -2.235140e+01 -3.537980e+01 5.800460e+01 -1.453800e+02 -1.147480e+00 1.782560e+02 0 0 0 1.475350e+01 -1.378700e+00 3.630310e-01 0 0 0 
0 0 0 -1.995800e+00 2.446950e+00 2.827140e+00 1.909490e+00 6.822540e+00 -2.269170e-01 3.397060e-01 -1.421090e+01 5.490940e-01 0 0 0 3.270950e+00 1.135850e+01 -6.448710e-01 1.764050e+00 -2.153240e+01 1.828400e+00 0 0 0 5.000000e-06 0 -4.700000e-05 0 0 0 9.263390e+00 -3.235450e+00 1.351840e+01 -7.213770e+00 -2.798980e+00 4.691390e+00 0 0 0 0 0 0 -2.263950e+01 -3.455780e+01 5.722980e+01 -1.442520e+02 -5.019740e+00 -1.793650e+02 0 0 0 9.243870e+00 -1.386400e+00 2.256140e-01 0 0 0 
0 0 0 7.804580e-01 2.558780e+00 5.410450e-01 -3.231290e+00 6.719220e+00 3.784740e-01 2.406400e+00 -1.303950e+01 -1.811210e-01 0 0 0 -2.541310e+00 1.186730e+01 5.229450e-01 4.969880e+00 -2.330380e+01 9.827640e-01 0 3.954802e-08 0 -3.970467e-23 2.191235e-08 -5.700000e-05 0 0 0 9.608060e+00 -2.352450e+00 1.792240e+01 -1.174620e+01 -2.640110e+00 4.443380e+00 0 -1.387407e-08 5.443548e-07 0 0 0 -1.882980e+01 -4.273590e+01 6.564830e+01 -1.301950e+02 -9.214050e+00 -1.727570e+02 -8.559201e-09 -3.540904e-08 -9.574468e-08 4.017830e+00 -5.004810e-01 3.515300e-02 0 0 2.219756e-08 
0 0 0 1.547300e+00 2.082480e+00 -1.002906e+00 -4.224000e+00 6.363980e+00 4.688690e-01 2.022630e+00 -1.129440e+01 -4.262390e-01 0 0 0 -4.378790e+00 1.082860e+01 8.242030e-01 6.479440e+00 -2.120180e+01 7.882790e-01 0 3.270678e-08 0 4.901520e-06 3.018434e-07 3.200000e-05 0 0 0 1.019297e+01 -2.108461e+00 1.848210e+01 -1.395060e+01 -3.226398e+00 4.268560e+00 0 -1.204564e-08 NaN 0 0 0 -1.607520e+01 -5.216520e+01 7.144000e+01 -1.070409e+02 -8.722120e+00 -1.614459e+02 8.104139e-07 -2.586634e-07 NaN 1.982310e+00 -4.989240e-01 1.726800e-02 0 0 1.101349e-08 
0 0 0 1.803306e+00 2.770670e+00 -2.157941e+00 -4.277767e+00 5.377936e+00 4.017510e-01 2.088418e+00 -1.058860e+01 -3.990270e-01 0 0 0 -4.155910e+00 9.073791e+00 6.564899e-01 5.766090e+00 -1.996260e+01 5.680315e-01 0 1.251779e-08 0 -1.985233e-23 NaN -3.300000e-05 0 0 0 1.076467e+01 -2.441597e+00 1.643365e+01 -1.549160e+01 -4.502117e+00 4.022200e+00 0 -5.244040e-09 NaN 0 0 0 -1.463440e+01 -5.873300e+01 7.417175e+01 -7.992518e+01 -5.153175e+00 -3.722226e+01 NaN NaN -6.399070e-08 1.175438e+00 9.909800e-02 -1.739497e-03 0 0 -2.397454e-07 
0 0 0 1.899652e+00 2.289970e+00 -9.998959e-01 -4.447673e+00 5.769860e+00 4.480728e-01 2.033752e+00 -1.061350e+01 -4.406635e-01 0 0 0 -4.328595e+00 9.096140e+00 6.858164e-01 5.658057e+00 -1.931260e+01 4.572319e-01 0 2.872985e-08 0 3.265498e-07 NaN -6.000000e-05 0 0 0 9.839263e+00 -3.738131e+00 1.101428e+01 -1.526770e+01 -5.245790e+00 4.006970e+00 0 9.821945e-10 -9.673760e-09 0 0 0 -2.104490e+01 -6.022170e+01 6.741210e+01 -5.009667e+01 -3.773229e+00 -3.371210e+00 NaN NaN -1.113354e-07 9.249058e-01 1.761600e-01 -1.660139e-03 0 0 NaN 
0 0 0 1.958100e+00 8.173000e-02 7.846370e-01 -4.584850e+00 8.802830e+00 7.031120e-01 2.228910e+00 -1.162590e+01 -4.641120e-01 0 0 0 -4.248950e+00 1.335480e+01 9.831360e-01 5.086730e+00 -2.201660e+01 3.572280e-01 0 NaN 0 NaN 1.455586e-08 3.000000e-06 0 0 0 8.480140e+00 -4.390450e+00 8.129550e+00 -1.432100e+01 -3.728710e+00 4.479770e+00 0 -6.882784e-09 1.945222e-08 0 0 0 -2.219800e+01 -5.209710e+01 6.439030e+01 -3.789550e+01 -4.682280e+00 -2.398940e+00 -4.462341e-08 4.294633e-09 NaN 5.346370e-01 -1.106730e+00 7.314293e-03 0 0 NaN 
0 0 0 1.708970e+00 -3.031770e-01 1.402620e+00 -4.037210e+00 1.003080e+01 7.043300e-01 1.837210e+00 -1.249100e+01 -4.626047e-01 0 0 0 -3.966763e+00 1.466140e+01 1.004920e+00 5.299030e+00 -2.213260e+01 5.516320e-01 0 8.088073e-08 0 NaN NaN -5.000000e-06 0 0 0 8.435900e+00 -4.474250e+00 7.532560e+00 -1.364690e+01 -3.242530e+00 4.628910e+00 0 -6.802571e-09 6.950302e-08 0 0 0 -2.019830e+01 -4.450240e+01 6.448300e+01 -3.515580e+01 -7.839220e+00 -4.420669e+00 -1.666667e-07 7.101493e-09 NaN 2.522832e-01 -1.056100e+00 8.851512e-03 0 0 1.259601e-08 
0 0 0 1.567210e+00 -1.729330e-01 1.229140e+00 -3.661640e+00 1.026190e+01 6.531770e-01 1.570210e+00 -1.319420e+01 -4.627436e-01 0 0 0 -3.717720e+00 1.505330e+01 9.668300e-01 5.371740e+00 -2.306530e+01 6.982400e-01 0 NaN 0 -6.698040e-08 NaN -2.300000e-05 0 0 0 9.109460e+00 -4.011670e+00 9.667030e+00 -1.402920e+01 -2.858130e+00 4.641010e+00 0 -3.550271e-09 NaN 0 0 0 -1.898400e+01 -4.316820e+01 6.544452e+01 -2.939375e+01 -7.948510e+00 -3.914923e+00 NaN -2.392442e-07 5.604179e-09 2.654285e-01 -1.161910e+00 1.422521e-02 0 0 2.800677e-08 
0 0 0 1.289870e+00 -1.479509e-01 9.354360e-01 -2.845750e+00 1.024280e+01 5.064390e-01 8.626990e-01 -1.311690e+01 -4.418668e-01 0 0 0 -3.124660e+00 1.522960e+01 8.216727e-01 5.152730e+00 -2.379680e+01 8.629979e-01 0 NaN 0 -1.156633e-06 8.824377e-09 -1.200000e-05 0 0 0 9.704140e+00 -3.323790e+00 1.276590e+01 -1.433629e+01 -1.473610e+00 4.877770e+00 0 -7.229639e-09 NaN 0 0 0 -1.792671e+01 -4.223030e+01 6.655730e+01 -3.346191e+01 -8.306140e+00 -4.876324e+00 NaN NaN -4.974231e-08 1.608627e-01 -1.252540e+00 3.428003e-02 0 0 NaN 
0 0 0 1.295930e+00 -4.848940e-01 6.951650e-01 -3.053480e+00 1.002650e+01 5.321130e-01 1.190720e+00 -1.185070e+01 -3.738266e-01 0 0 0 -3.119050e+00 1.533390e+01 8.255780e-01 5.136880e+00 -2.311210e+01 8.357682e-01 0 -1.821315e-08 0 NaN 2.193784e-08 -6.000000e-06 0 0 0 9.807430e+00 -2.418620e+00 1.706340e+01 -1.308093e+01 1.451390e-01 5.058100e+00 0 -2.555407e-09 -6.456241e-08 0 0 0 -1.915254e+01 -4.574070e+01 6.620490e+01 -3.628539e+01 -7.395530e+00 -5.013835e+00 -2.398605e-08 NaN NaN 2.070571e-01 -1.452309e+00 3.839769e-02 0 0 NaN 
0 0 0 1.372366e+00 2.567730e-01 3.315210e-01 -3.191240e+00 9.340410e+00 5.184650e-01 1.364580e+00 -1.211790e+01 -3.746900e-01 0 0 0 -3.184997e+00 1.392070e+01 7.635710e-01 4.997265e+00 -2.200950e+01 7.182980e-01 0 -6.135005e-09 0 NaN NaN 2.000000e-06 0 0 0 9.858840e+00 -2.245730e+00 1.796080e+01 -1.192180e+01 8.950140e-01 5.175480e+00 0 -1.999054e-09 NaN 0 0 0 -1.976350e+01 -5.448040e+01 6.764110e+01 -4.466514e+01 -3.994060e+00 -3.885560e+00 -3.135121e-08 1.241989e-08 NaN 4.929206e-01 -8.192235e-01 NaN 0 0 9.633597e-09 
0 0 0 1.393144e+00 -3.204820e-01 2.489800e-01 -3.720920e+00 9.830490e+00 6.361600e-01 1.666550e+00 -1.204130e+01 -4.173310e-01 0 0 0 -3.659574e+00 1.482860e+01 9.416730e-01 5.486840e+00 -2.310433e+01 7.603860e-01 0 5.435308e-08 0 -4.630262e-09 NaN -1.900000e-05 0 0 0 9.596280e+00 -1.527286e+00 2.174490e+01 -1.149000e+01 1.648150e+00 5.096000e+00 0 -1.421926e-09 NaN 0 0 0 -2.308650e+01 -5.817660e+01 6.478730e+01 -6.125240e+01 -5.591840e+00 -8.204242e+00 NaN -1.166885e-08 -1.687860e-09 5.813205e-01 -1.208110e+00 1.352790e-02 0 0 1.473816e-08 
0 0 0 1.162350e+00 5.449243e-01 -2.042850e-01 -3.513721e+00 8.835460e+00 5.414780e-01 2.221220e+00 -1.204980e+01 -2.626440e-01 0 0 0 -3.757970e+00 1.358460e+01 8.838770e-01 6.665370e+00 -2.202800e+01 1.130820e+00 0 NaN 0 -1.943194e-07 1.838497e-08 -4.000000e-05 0 0 0 1.018100e+01 -1.386050e+00 2.149890e+01 -1.202750e+01 3.665910e-01 4.898250e+00 0 -7.701313e-10 8.235666e-08 0 0 0 -2.652030e+01 -6.364040e+01 6.219520e+01 -7.996810e+01 -6.319390e+00 -3.652641e+01 NaN NaN -2.200069e-07 5.054510e-01 -7.489200e-01 4.391508e-02 0 0 NaN 
0 0 0 9.398154e-01 2.480510e-01 -1.793241e-01 -2.421890e+00 9.037700e+00 3.807579e-01 1.218710e+00 -1.194563e+01 -2.428720e-01 0 0 0 -2.694386e+00 1.322860e+01 6.170023e-01 5.899970e+00 -2.136865e+01 1.178490e+00 0 NaN 0 -1.428281e-07 NaN 8.000000e-06 0 0 0 1.051086e+01 -1.109654e+00 2.211186e+01 -1.273040e+01 -1.031340e-01 4.769590e+00 0 -1.526049e-08 NaN 0 0 0 -2.946410e+01 -6.357870e+01 5.919640e+01 -1.003259e+02 -8.852040e+00 -1.543070e+02 -4.108359e-09 -2.104725e-09 NaN 4.188551e-01 -1.149445e+00 6.030581e-02 0 0 1.306147e-08 
0 0 0 5.993090e-01 6.461270e-01 1.260650e+00 -1.559730e+00 8.701586e+00 2.360520e-01 9.775150e-01 -1.137891e+01 -1.113170e-01 0 0 0 -1.215910e+00 1.332155e+01 2.801660e-01 4.368290e+00 -2.244130e+01 1.182452e+00 0 -2.627243e-07 0 -5.754452e-08 NaN -1.600000e-05 0 0 0 1.069050e+01 -2.156662e+00 1.704833e+01 -1.447070e+01 -7.053330e-01 4.864180e+00 0 -1.270473e-08 NaN 0 0 0 -2.754660e+01 -5.356430e+01 5.898330e+01 -1.239225e+02 -9.484730e+00 -1.706920e+02 -5.658886e-08 -8.159442e-09 NaN 1.025706e+00 -7.241056e-01 NaN 0 0 2.564328e-08 
0 0 0 -8.898019e-02 1.553130e+00 3.245360e+00 -1.031890e+00 7.682680e+00 1.379680e-01 1.034796e+00 -1.176340e+01 1.671204e-03 0 0 0 -6.460070e-01 1.349120e+01 1.507240e-01 4.030050e+00 NaN 1.364508e+00 0 NaN 0 -1.192915e-06 1.902539e-08 -4.400000e-05 0 0 0 1.053120e+01 -4.541350e+00 5.978750e+00 -1.383330e+01 -1.410180e+00 5.136860e+00 0 NaN -2.311510e-08 0 0 0 -2.566190e+01 -4.283730e+01 5.740561e+01 -1.410303e+02 -7.848090e+00 -1.767834e+02 1.964949e-07 -3.680425e-08 -3.237704e-08 2.577100e+00 -2.807568e+00 1.608825e-02 0 0 NaN 
0 0 0 -1.261630e-01 1.674970e+00 2.462940e+00 -5.174651e-01 6.967060e+00 6.319775e-02 3.811548e-01 -1.150340e+01 -2.639150e-02 0 0 0 -2.119714e-01 1.363360e+01 5.013119e-02 3.766540e+00 -2.057282e+01 1.471753e+00 0 NaN 0 4.000000e-06 NaN 2.400000e-05 0 0 0 1.011940e+01 -4.489040e+00 6.529100e+00 -1.412005e+01 -1.366401e+00 5.154000e+00 0 -4.348069e-09 4.893724e-08 0 0 0 -2.493460e+01 -4.083360e+01 5.751160e+01 -1.418633e+02 -7.561281e+00 -1.767443e+02 NaN -1.289589e-08 -1.069300e-07 2.744610e+00 -1.917810e+00 1.764566e-02 0 0 1.346129e-08 
0 0 0 7.722045e-01 1.573570e+00 1.403240e+00 -1.913259e+00 6.827940e+00 2.282190e-01 7.153720e-01 -1.090740e+01 -2.202469e-01 0 0 0 -1.785220e+00 1.338660e+01 4.134937e-01 4.330728e+00 -2.176194e+01 1.048395e+00 0 1.008994e-08 0 -6.617445e-24 NaN 3.900000e-05 0 0 0 9.536330e+00 -4.170921e+00 8.641220e+00 -1.455982e+01 -8.760169e-01 5.233040e+00 0 -5.814201e-09 7.874377e-08 0 0 0 -2.543440e+01 -4.714477e+01 5.939708e+01 -1.300993e+02 -9.172450e+00 -1.730341e+02 NaN -1.298310e-08 NaN 1.460130e+00 -8.924390e-01 2.700104e-02 0 0 1.629082e-08 
0 0 0 5.824780e-01 4.238000e-03 2.918100e-02 -2.181370e+00 8.361940e+00 3.173820e-01 1.547060e+00 -1.072330e+01 -1.136570e-01 0 0 0 -2.104750e+00 1.410119e+01 5.128150e-01 5.234730e+00 NaN 1.228330e+00 0 -2.616785e-08 0 0 1.748727e-08 1.500000e-05 0 0 0 9.989690e+00 -3.096450e+00 1.373390e+01 -1.361539e+01 5.475520e-01 5.378710e+00 0 -1.058916e-08 NaN 0 0 0 -2.398820e+01 -5.479570e+01 6.319320e+01 -1.091197e+02 -9.712490e+00 -1.625545e+02 -9.289877e-09 -2.480445e-08 NaN 9.174585e-01 -1.519330e+00 2.520969e-02 0 0 1.234568e-08 
0 0 0 5.465860e-01 6.280080e-01 -1.300470e+00 -2.209803e+00 8.104430e+00 3.114940e-01 1.543600e+00 -1.110369e+01 -1.234775e-01 0 0 0 -2.288479e+00 1.298800e+01 5.137337e-01 5.597084e+00 -2.335564e+01 1.263821e+00 0 -1.246145e-07 0 1.328883e-08 NaN 4.700000e-05 0 0 0 1.039050e+01 -2.779690e+00 1.507450e+01 -1.398710e+01 -1.147730e+00 4.966574e+00 0 -2.396869e-09 NaN 0 0 0 -2.262194e+01 -6.180320e+01 6.605340e+01 -8.445150e+01 -7.715950e+00 -8.311844e+01 -8.819269e-08 -1.419291e-08 3.622939e-08 6.915218e-01 -1.151630e+00 1.385501e-02 0 0 2.906977e-08 
0 0 0 6.316944e-01 -8.606000e-02 -6.829740e-01 -2.097725e+00 8.916920e+00 3.252048e-01 1.195390e+00 -1.135890e+01 -1.715590e-01 0 0 0 -2.263793e+00 1.358680e+01 5.326007e-01 5.438520e+00 -2.120180e+01 1.213183e+00 0 NaN 0 -1.924929e-07 NaN -8.000000e-06 0 0 0 1.006990e+01 -3.290224e+00 1.282930e+01 -1.423241e+01 -8.984830e-01 5.097990e+00 0 5.450017e-09 -5.551582e-07 0 0 0 -2.236060e+01 -6.294260e+01 6.642980e+01 -5.853881e+01 -4.180907e+00 -5.897490e+00 NaN -9.860183e-09 -8.558065e-08 8.373450e-01 -1.294543e+00 1.887185e-02 0 0 NaN 
